<svg xmlns="http://www.w3.org/2000/svg" xmlns:xlink="http://www.w3.org/1999/xlink" id="&#x421;&#x43B;&#x43E;&#x439;_1" x="0px" y="0px" viewBox="0 0 65.2 65.2" style="enable-background:new 0 0 65.2 65.2;" xml:space="preserve"><style type="text/css">	.st0{fill:#06052D;}	.st1{fill-rule:evenodd;clip-rule:evenodd;fill:#06052D;}</style><path class="st0" d="M32.7,65.2c-18,0-32.6-14.6-32.6-32.6S14.7,0,32.7,0c18,0,32.6,14.6,32.6,32.6S50.7,65.2,32.7,65.2z M32.7,1 C15.3,1,1.1,15.2,1.1,32.6c0,17.4,14.2,31.6,31.6,31.6S64.3,50,64.3,32.6C64.3,15.2,50.1,1,32.7,1z"></path><path id="Telegram-2_6_" class="st1" d="M15.3,32.1c9.4-4,15.6-6.8,18.7-8.1c8.9-3.7,10.7-4.3,11.9-4.3c0.4,0,0.9,0.1,1.3,0.4 c0.3,0.2,0.4,0.5,0.5,0.9c0.1,0.4,0.1,0.9,0.1,1.3c-0.5,5.1-2.6,17.3-3.6,23c-0.5,2.4-1.4,3.3-2.2,3.3c-1.9,0.2-3.3-1.3-5.1-2.4 c-2.9-1.9-4.4-3-7.2-4.8c-3.2-2.1-1.1-3.3,0.7-5.1c0.5-0.5,8.7-8,8.9-8.6c0-0.2,0-0.4-0.2-0.6C38.8,27,38.5,27,38.3,27 c-0.3,0.1-4.8,3.1-13.5,9c-1.3,0.9-2.5,1.3-3.4,1.3c-1.2,0-3.3-0.7-5-1.2c-2-0.7-3.5-1-3.4-2.1C13,33.3,13.8,32.7,15.3,32.1z"></path></svg>