<svg xmlns="http://www.w3.org/2000/svg" xmlns:xlink="http://www.w3.org/1999/xlink" id="&#x421;&#x43B;&#x43E;&#x439;_1" x="0px" y="0px" viewBox="0 0 65.2 65.2" style="enable-background:new 0 0 65.2 65.2;" xml:space="preserve"><style type="text/css">	.st0{fill:#06052D;}</style><path class="st0" d="M32.7,65.2c-18,0-32.6-14.6-32.6-32.6S14.7,0,32.7,0c18,0,32.6,14.6,32.6,32.6S50.7,65.2,32.7,65.2z M32.7,1 C15.3,1,1.1,15.2,1.1,32.6c0,17.4,14.2,31.6,31.6,31.6S64.3,50,64.3,32.6C64.3,15.2,50.1,1,32.7,1z"></path><path id="VK-2_8_" class="st0" d="M33.9,44.5c-12.5,0-19.6-8.6-19.9-22.8h6.2c0.2,10.4,4.8,14.9,8.5,15.8V21.8h5.9v9 c3.5-0.4,7.4-4.4,8.7-9h5.9c-1,5.5-5.1,9.7-8,11.3c4.6,2.3,8,6.4,9.4,11.4H44c-1.4-4.3-4.8-7.7-9.5-8.2v8.2L33.9,44.5L33.9,44.5z"></path></svg>