<svg xmlns="http://www.w3.org/2000/svg" xmlns:xlink="http://www.w3.org/1999/xlink" id="&#x421;&#x43B;&#x43E;&#x439;_1" x="0px" y="0px" viewBox="0 0 65.2 65.2" style="enable-background:new 0 0 65.2 65.2;" xml:space="preserve"><style type="text/css">	.st0{fill:#06052D;}</style><path class="st0" d="M35.7,35.6c-2.4,2.5-2.6,5.7-2.8,12.6c6.4,0,10.9,0,13.1-2.2c2.2-2.3,2.2-6.9,2.2-13.1 C41.4,33,38.2,33.2,35.7,35.6 M17.1,32.8c0,6.2,0,10.9,2.2,13.1c2.3,2.2,6.7,2.2,13.1,2.2c-0.2-6.9-0.4-10-2.8-12.6 C27.2,33.2,24,33,17.1,32.8 M32.5,17.1c-6.4,0-10.9,0-13.1,2.2c-2.2,2.3-2.2,6.9-2.2,13.1c6.9-0.2,10-0.4,12.6-2.8 C32.1,27.1,32.3,24,32.5,17.1 M35.7,29.6c-2.4-2.5-2.6-5.7-2.8-12.6c6.4,0,10.9,0,13.1,2.2c2.2,2.3,2.2,6.9,2.2,13.1 C41.4,32.2,38.2,32.1,35.7,29.6"></path><path class="st0" d="M32.7,65.2c-18,0-32.6-14.6-32.6-32.6S14.7,0,32.7,0s32.6,14.6,32.6,32.6S50.7,65.2,32.7,65.2z M32.7,1.1 C15.3,1.1,1.1,15.2,1.1,32.6s14.2,31.6,31.6,31.6s31.6-14.2,31.6-31.6S50.1,1.1,32.7,1.1z"></path></svg>